<?xml version="1.0" standalone="no"?>
<!DOCTYPE svg PUBLIC "-//W3C//DTD SVG 20010904//EN"
 "http://www.w3.org/TR/2001/REC-SVG-20010904/DTD/svg10.dtd">
<svg version="1.0" xmlns="http://www.w3.org/2000/svg"
 width="128.000000pt" height="128.000000pt" viewBox="0 0 128.000000 128.000000"
 preserveAspectRatio="xMidYMid meet">
<metadata>
Created by potrace 1.14, written by Peter Selinger 2001-2017
</metadata>
<g transform="translate(0.000000,128.000000) scale(0.100000,-0.100000)"
fill="#000000" stroke="none">
<path d="M984 1210 c-5 -5 -69 -21 -141 -33 -126 -23 -131 -23 -153 -5 -36 29
-78 23 -115 -16 -23 -24 -44 -36 -76 -41 -24 -3 -57 -9 -74 -11 -16 -3 -49 -9
-73 -15 -24 -5 -48 -7 -53 -3 -5 3 -15 1 -22 -4 -7 -5 -33 -13 -59 -16 -54 -8
-73 -26 -64 -61 7 -29 36 -34 104 -19 19 4 22 0 22 -31 0 -19 -4 -35 -8 -35
-5 0 -41 -30 -80 -66 l-71 -65 0 -185 c0 -226 -11 -212 171 -214 177 -1 168
-12 168 219 l0 178 -48 44 c-26 24 -62 56 -80 71 -27 23 -33 34 -30 60 l3 32
129 23 c85 14 135 19 146 13 16 -8 17 -38 17 -352 0 -189 -2 -348 -4 -354 -2
-7 -25 -11 -55 -10 -62 3 -90 -16 -91 -62 -2 -30 -4 -32 -39 -32 -58 0 -78
-26 -78 -100 l0 -60 310 0 310 0 0 65 c0 57 -3 66 -24 81 -14 9 -39 14 -58 12
-28 -3 -32 0 -33 22 -1 38 -15 70 -31 71 -8 1 -36 2 -64 2 -27 1 -51 4 -51 7
-1 3 -2 160 -3 349 l-1 344 25 28 c20 23 41 31 110 44 165 31 160 31 160 -4 0
-16 -6 -34 -14 -38 -8 -4 -44 -36 -80 -70 l-66 -62 0 -179 c0 -161 2 -181 18
-195 15 -14 42 -17 154 -17 118 0 137 2 151 18 15 16 17 45 17 196 l0 178 -27
26 c-16 15 -52 48 -80 74 -42 36 -53 52 -53 76 0 28 3 30 48 37 63 9 82 21 82
49 0 36 -22 48 -72 41 -23 -4 -46 -9 -49 -11 -4 -2 -9 1 -11 6 -2 8 -6 8 -14
0z"/>
</g>
</svg>
